# xmcd
#
# Track frame offsets:
#	150
#	30081
#	61309
#	90503
#	124396
#	157460
#	192575
#	205787
#	251474
#	279071
#	302038
#
# Disc length: 4238
#
# Revision: 2
# Processed by: cddbd v1.5.1PL0 Copyright (c) Steve Scherf et al.
# Submitted via: CDex 1.51
# Normalized: r1:TRMNUM
#
DISCID=92108c0b
DTITLE=Bill Evans - The Bill Evans Story - Fantasy Years
DYEAR=2004
DGENRE=Jazz
TTITLE0=TTTT (Twelve tones Tune Two) 
TTITLE1=Since We Met
TTITLE2=One for Helen
TTITLE3=The Peacock
TTITLE4=Hi Lill Hi Lo
TTITLE5=Elsa
TTITLE6=When in Rome
TTITLE7=Bass Face
TTITLE8=Night and Day
TTITLE9=Turn Out the Stars
TTITLE10=I Will Say Goodbye
EXTD=YEAR: 2004
EXTT0=
EXTT1=
EXTT2=
EXTT3=
EXTT4=
EXTT5=
EXTT6=
EXTT7=
EXTT8=
EXTT9=
EXTT10=
PLAYORDER=
